<svg id="Capa_1" data-name="Capa 1" xmlns="http://www.w3.org/2000/svg" viewBox="0 0 464.96 654.26"><defs><style>.cls-1{fill:#fff;}</style></defs><title>cabotaje</title><path class="cls-1" d="M228.43,10.27c-20.9,7-36.08,30.79-32.4,52.3,2,11.9,6,19.3,17.6,32.4,9.5,10.6,9.7,11.5,8.9,38.4-.4,12-1.1,22.8-1.5,24-.23,6-16.27,6.16-20.6,4.6.64,1.29-84.83-84-84.7-82.2-.7,0-1.8,1.7-2.4,3.7-10.41,30.23-22.47,58.08-32.7,86.3-13.49,36-27.16,70.7-40.1,105.5-43.56,99.3.3,78.11,40.6,14.5,19.13-32.41,36.42-72.78,49-108.3,1.7-4.9,2.8-6.7,4-6.7,16,7.94,90.11,60.42,109.6,71,29.56-16.74,72.27-47.87,96.5-63.2,14.5-9.8,14.4-9.8,15.7-5.6,8.62,25,14.5,39.18,26.4,66.3,13.84,29.31,29.47,60.54,52.2,83.1,13.71,13.33,23.63,23.16,30,14,3.2-5.9,1.2-16.6-7.4-39.1-9.9-26-12-31.3-14.1-36.5-12.84-33.94-29.15-77.5-44.5-117.4-4.31-11-14.25-37-18.2-48.1-.14-1.86-5.24-11.78-5.3-13.5,0-1.9-2.4-6-3.5-6-14.08,11.55-62.16,62-84.1,83-8.46,0-13.72,1.06-19.1-5-1.66-24.82-2.95-57.56,10.8-67.4,7.4-7.9,10.4-12.6,12.8-19.8C304,32.79,264.68-3.17,228.43,10.27Zm28.5,32.3c21.6,21.67-17.83,47.79-29.8,20.3C220.54,43.37,243.05,31.76,256.93,42.57Z" transform="translate(-12.05 -7.39)"/><path class="cls-1" d="M214.33,265.47c5.11,67.41,8.39,166.57,7.2,251.1-15.4,19.23-85.16-18.78-106.3-33.2-28.73-17.24,12.6-13.24,9-23.8-24.65-14.1-87.81-38.95-102.9-59.71-7.81-6.6-10.17-12.54-9,1.11,12.14,112.14,137.62,130.67,198,208.8,9.9,12.4,23.2,33.6,28.2,44.8,2.1,4.7,3.4,6.4,5.3,6.9,3.1.7,3.8-.1,9.8-11.7,27.05-50,52.17-72.95,108.4-109.5,12.8-8.31,36.26-22.32,46-29.4,25.53-19,53.07-49.32,62.39-81.1,5-15.6,7.61-30.8,6.21-36.3-.5-2.3-1.2-1.9-11,7.8-14.7,14.5-34.4,27.6-52.1,34.7-4.3,1.7-11.4,4.9-24,10.8-5.21,3.44-31.38,10-22.3,17.5,4.17,3.28,18.46,5,19.3,9.2,0,2.9-27.1,20.1-46.5,29.6-13,6.4-32.7,13.7-42,15.6-6.45,1.42-26.62,7.14-29,0-3-33.36.52-210.16,4.2-260.4-5.54,5.32-27.49,27.55-29.6,28.5-.52.7-28.29-28.71-28.8-28C214.23,258.77,214,261.47,214.33,265.47Z" transform="translate(-12.05 -7.39)"/></svg>